<svg xmlns="http://www.w3.org/2000/svg" xmlns:xlink="http://www.w3.org/1999/xlink" width="500" zoomAndPan="magnify" viewBox="0 0 375 374.999991" height="500" preserveAspectRatio="xMidYMid meet" version="1.0"><defs><g/></defs><path stroke-linecap="round" transform="matrix(-0.0111458, 0.749917, -0.749917, -0.0111458, 121.340608, 127.564079)" fill="none" stroke-linejoin="miter" d="M 3.00112 2.998417 L 68.961597 3.002547 " stroke="#000000" stroke-width="6" stroke-opacity="1" stroke-miterlimit="4"/><path stroke-linecap="round" transform="matrix(-0.686308, 0.302459, -0.302459, -0.686308, 119.978735, 180.953381)" fill="none" stroke-linejoin="miter" d="M 3.000306 3.001671 L 116.504927 2.999479 " stroke="#000000" stroke-width="6" stroke-opacity="1" stroke-miterlimit="4"/><path stroke-linecap="round" transform="matrix(-0.692566, 0.287841, -0.287841, -0.692566, 120.761795, 130.004742)" fill="none" stroke-linejoin="miter" d="M 2.999551 3.001988 L 87.306077 2.998184 " stroke="#000000" stroke-width="6" stroke-opacity="1" stroke-miterlimit="4"/><path stroke-linecap="round" transform="matrix(-0.549694, -0.510232, 0.510232, -0.549694, 119.184532, 132.043263)" fill="none" stroke-linejoin="miter" d="M 2.99993 3.000438 L 56.504491 3.002378 " stroke="#000000" stroke-width="6" stroke-opacity="1" stroke-miterlimit="4"/><path stroke-linecap="round" transform="matrix(0.686059, -0.303022, 0.303022, 0.686059, 25.728848, 127.075261)" fill="none" stroke-linejoin="miter" d="M 2.999973 2.997486 L 90.35277 2.999065 " stroke="#000000" stroke-width="6" stroke-opacity="1" stroke-miterlimit="4"/><path stroke-linecap="round" transform="matrix(0.588686, 0.464703, -0.464703, 0.588686, 28.707653, 125.954771)" fill="none" stroke-linejoin="miter" d="M 2.997086 2.999487 L 54.597324 3.002343 " stroke="#000000" stroke-width="6" stroke-opacity="1" stroke-miterlimit="4"/><path stroke-linecap="round" transform="matrix(-0.0286758, 0.749452, -0.749452, -0.0286758, 61.940691, 151.484244)" fill="none" stroke-linejoin="miter" d="M 3.00253 3.001024 L 72.235401 2.99978 " stroke="#000000" stroke-width="6" stroke-opacity="1" stroke-miterlimit="4"/><path stroke-linecap="round" transform="matrix(-0.0286758, 0.749452, -0.749452, -0.0286758, 70.107794, 161.784378)" fill="none" stroke-linejoin="miter" d="M 2.998143 3.000037 L 72.231015 2.998793 " stroke="#000000" stroke-width="6" stroke-opacity="1" stroke-miterlimit="4"/><path stroke-linecap="round" transform="matrix(-0.0286758, 0.749452, -0.749452, -0.0286758, 91.690026, 99.523294)" fill="none" stroke-linejoin="miter" d="M 3.002512 3.000137 L 72.235383 2.998893 " stroke="#000000" stroke-width="6" stroke-opacity="1" stroke-miterlimit="4"/><path stroke-linecap="round" transform="matrix(-0.683164, 0.309495, -0.309495, -0.683164, 89.825492, 154.773491)" fill="none" stroke-linejoin="miter" d="M 2.99975 3.000095 L 119.507354 3.000037 " stroke="#000000" stroke-width="6" stroke-opacity="1" stroke-miterlimit="4"/><path stroke-linecap="round" transform="matrix(-0.000922079, -0.749999, 0.749999, -0.000922079, 26.175799, 180.753019)" fill="none" stroke-linejoin="miter" d="M 3.000342 2.998459 L 69.328518 3.00188 " stroke="#000000" stroke-width="6" stroke-opacity="1" stroke-miterlimit="4"/><path stroke-linecap="round" transform="matrix(0.593207, 0.458917, -0.458917, 0.593207, 87.33224, 151.609195)" fill="none" stroke-linejoin="miter" d="M 2.999271 3.000659 L 51.688034 3.000033 " stroke="#000000" stroke-width="6" stroke-opacity="1" stroke-miterlimit="4"/><path stroke-linecap="round" transform="matrix(0.00168857, -0.749998, 0.749998, 0.00168857, 94.663959, 241.621683)" fill="none" stroke-linejoin="miter" d="M 3.002337 2.998595 L 69.065018 3.000901 " stroke="#000000" stroke-width="6" stroke-opacity="1" stroke-miterlimit="4"/><path stroke-linecap="round" transform="matrix(0.678772, -0.319011, 0.319011, 0.678772, 35.240268, 266.305442)" fill="none" stroke-linejoin="miter" d="M 3.001998 2.998121 L 87.83459 2.99817 " stroke="#000000" stroke-width="6" stroke-opacity="1" stroke-miterlimit="4"/><path stroke-linecap="round" transform="matrix(0.553418, 0.50619, -0.50619, 0.553418, 7.656142, 237.662855)" fill="none" stroke-linejoin="miter" d="M 2.997414 2.999048 L 55.998318 2.998278 " stroke="#000000" stroke-width="6" stroke-opacity="1" stroke-miterlimit="4"/><path stroke-linecap="round" transform="matrix(0.582246, 0.472747, -0.472747, 0.582246, 65.552199, 211.451309)" fill="none" stroke-linejoin="miter" d="M 2.998906 3.002433 L 52.717956 3.001332 " stroke="#000000" stroke-width="6" stroke-opacity="1" stroke-miterlimit="4"/><path stroke-linecap="round" transform="matrix(0.696336, -0.278596, 0.278596, 0.696336, 5.061984, 237.610369)" fill="none" stroke-linejoin="miter" d="M 3.002011 3.00036 L 84.650902 3.001707 " stroke="#000000" stroke-width="6" stroke-opacity="1" stroke-miterlimit="4"/><path stroke-linecap="round" transform="matrix(0.00166761, 0.749998, -0.749998, 0.00166761, 9.58082, 188.505866)" fill="none" stroke-linejoin="miter" d="M 3.001141 2.999857 L 69.970063 2.997719 " stroke="#000000" stroke-width="6" stroke-opacity="1" stroke-miterlimit="4"/><path stroke-linecap="round" transform="matrix(0.587784, 0.465843, -0.465843, 0.587784, 8.923491, 188.385091)" fill="none" stroke-linejoin="miter" d="M 3.000484 3.001152 L 50.429821 2.999655 " stroke="#000000" stroke-width="6" stroke-opacity="1" stroke-miterlimit="4"/><path stroke-linecap="round" transform="matrix(-0.0161607, 0.749826, -0.749826, -0.0161607, 40.629388, 213.59048)" fill="none" stroke-linejoin="miter" d="M 3.001974 2.999154 L 66.391666 2.997845 " stroke="#000000" stroke-width="6" stroke-opacity="1" stroke-miterlimit="4"/><g fill="#ed181f" fill-opacity="1"><g transform="translate(112.837126, 253.480197)"><g><path d="M -5.890625 0 L -5.890625 -6.265625 L -1.015625 -6.265625 C 0.535156 -6.265625 1.851562 -6.375 2.9375 -6.59375 C 4.03125 -6.8125 4.914062 -7.234375 5.59375 -7.859375 C 6.28125 -8.492188 6.769531 -9.378906 7.0625 -10.515625 C 7.351562 -11.660156 7.5 -13.175781 7.5 -15.0625 L 7.5 -52.03125 L 15.640625 -52.03125 L 15.640625 -16.8125 C 15.640625 -14.238281 15.484375 -11.910156 15.171875 -9.828125 C 14.859375 -7.742188 14.203125 -5.972656 13.203125 -4.515625 C 12.210938 -3.054688 10.769531 -1.9375 8.875 -1.15625 C 6.988281 -0.382812 4.46875 0 1.3125 0 Z M -5.890625 0 "/></g></g></g><g fill="#ed181f" fill-opacity="1"><g transform="translate(136.999651, 253.480197)"><g><path d="M 0 0 L 0 -52.03125 L 16.671875 -52.03125 C 20.453125 -52.03125 23.578125 -51.640625 26.046875 -50.859375 C 28.523438 -50.085938 30.503906 -49.082031 31.984375 -47.84375 C 33.460938 -46.613281 34.492188 -45.195312 35.078125 -43.59375 C 35.660156 -41.988281 35.953125 -40.363281 35.953125 -38.71875 C 35.953125 -37.363281 35.695312 -36.039062 35.1875 -34.75 C 34.675781 -33.46875 34.007812 -32.300781 33.1875 -31.25 C 32.363281 -30.207031 31.394531 -29.320312 30.28125 -28.59375 C 29.164062 -27.875 28.023438 -27.390625 26.859375 -27.140625 L 26.859375 -26.921875 C 28.265625 -26.640625 29.582031 -26.097656 30.8125 -25.296875 C 32.050781 -24.492188 33.144531 -23.507812 34.09375 -22.34375 C 35.039062 -21.175781 35.789062 -19.890625 36.34375 -18.484375 C 36.90625 -17.078125 37.1875 -15.625 37.1875 -14.125 C 37.1875 -12.375 36.867188 -10.648438 36.234375 -8.953125 C 35.609375 -7.253906 34.539062 -5.738281 33.03125 -4.40625 C 31.53125 -3.070312 29.519531 -2.003906 27 -1.203125 C 24.476562 -0.398438 21.300781 0 17.46875 0 Z M 15.421875 -5.96875 C 18.140625 -5.96875 20.394531 -6.207031 22.1875 -6.6875 C 23.988281 -7.175781 25.410156 -7.832031 26.453125 -8.65625 C 27.492188 -9.476562 28.234375 -10.421875 28.671875 -11.484375 C 29.109375 -12.554688 29.328125 -13.703125 29.328125 -14.921875 C 29.328125 -16.085938 29.109375 -17.203125 28.671875 -18.265625 C 28.234375 -19.335938 27.503906 -20.285156 26.484375 -21.109375 C 25.472656 -21.929688 24.15625 -22.582031 22.53125 -23.0625 C 20.90625 -23.550781 18.898438 -23.796875 16.515625 -23.796875 L 11.640625 -23.796875 L 11.640625 -29.6875 L 16.453125 -29.6875 C 18.679688 -29.6875 20.554688 -29.914062 22.078125 -30.375 C 23.609375 -30.84375 24.832031 -31.453125 25.75 -32.203125 C 26.675781 -32.953125 27.332031 -33.8125 27.71875 -34.78125 C 28.113281 -35.757812 28.3125 -36.78125 28.3125 -37.84375 C 28.3125 -38.957031 28.113281 -40 27.71875 -40.96875 C 27.332031 -41.945312 26.664062 -42.796875 25.71875 -43.515625 C 24.78125 -44.242188 23.5 -44.828125 21.875 -45.265625 C 20.25 -45.703125 18.195312 -45.921875 15.71875 -45.921875 L 7.9375 -45.921875 L 7.9375 -5.96875 Z M 15.421875 -5.96875 "/></g></g></g><g fill="#ffffff" fill-opacity="1"><g transform="translate(181.034331, 253.480197)"><g/></g></g><g fill="#0d0453" fill-opacity="1"><g transform="translate(195.81425, 253.480197)"><g><path d="M 31.296875 -52.03125 L 31.296875 -45.703125 L 8.078125 -45.703125 L 8.078125 -29.84375 L 29.109375 -29.84375 L 29.109375 -23.65625 L 8.078125 -23.65625 L 8.078125 -6.1875 L 31.296875 -6.1875 L 31.296875 0 L 0 0 L 0 -52.03125 Z M 31.296875 -52.03125 "/></g></g></g><g fill="#0d0453" fill-opacity="1"><g transform="translate(233.732724, 253.480197)"><g/></g></g><g fill="#0d0453" fill-opacity="1"><g transform="translate(248.506801, 253.480197)"><g/></g></g><g fill="#0d0453" fill-opacity="1"><g transform="translate(263.280878, 253.480197)"><g/></g></g><g fill="#0d0453" fill-opacity="1"><g transform="translate(278.060298, 253.480197)"><g><path d="M 0 0 L 0 -52.03125 L 17.765625 -52.03125 C 21.203125 -52.03125 24.132812 -51.628906 26.5625 -50.828125 C 28.988281 -50.035156 30.96875 -48.957031 32.5 -47.59375 C 34.03125 -46.238281 35.144531 -44.675781 35.84375 -42.90625 C 36.550781 -41.132812 36.90625 -39.28125 36.90625 -37.34375 C 36.90625 -35.25 36.515625 -33.253906 35.734375 -31.359375 C 34.960938 -29.472656 33.757812 -27.800781 32.125 -26.34375 C 30.5 -24.882812 28.4375 -23.71875 25.9375 -22.84375 C 23.445312 -21.976562 20.476562 -21.546875 17.03125 -21.546875 L 11.71875 -21.546875 L 11.71875 -27.875 L 16.078125 -27.875 C 18.410156 -27.875 20.398438 -28.128906 22.046875 -28.640625 C 23.703125 -29.148438 25.035156 -29.816406 26.046875 -30.640625 C 27.066406 -31.460938 27.804688 -32.429688 28.265625 -33.546875 C 28.734375 -34.660156 28.96875 -35.828125 28.96875 -37.046875 C 28.96875 -38.253906 28.734375 -39.390625 28.265625 -40.453125 C 27.804688 -41.523438 27.09375 -42.445312 26.125 -43.21875 C 25.15625 -44 23.894531 -44.609375 22.34375 -45.046875 C 20.789062 -45.484375 18.921875 -45.703125 16.734375 -45.703125 L 8.078125 -45.703125 L 8.078125 0 Z M 0 0 "/></g></g></g><g fill="#0d0453" fill-opacity="1"><g transform="translate(320.635835, 253.480197)"><g><path d="M -2.765625 -25.6875 C -2.765625 -29.132812 -2.226562 -32.484375 -1.15625 -35.734375 C -0.09375 -38.984375 1.523438 -41.859375 3.703125 -44.359375 C 5.890625 -46.859375 8.671875 -48.859375 12.046875 -50.359375 C 15.421875 -51.867188 19.410156 -52.625 24.015625 -52.625 C 28.578125 -52.625 32.539062 -51.90625 35.90625 -50.46875 C 39.28125 -49.039062 42.070312 -47.125 44.28125 -44.71875 C 46.488281 -42.320312 48.125 -39.554688 49.1875 -36.421875 C 50.257812 -33.296875 50.796875 -30.035156 50.796875 -26.640625 C 50.796875 -23.046875 50.257812 -19.609375 49.1875 -16.328125 C 48.125 -13.054688 46.5 -10.160156 44.3125 -7.640625 C 42.132812 -5.117188 39.367188 -3.117188 36.015625 -1.640625 C 32.671875 -0.160156 28.742188 0.578125 24.234375 0.578125 C 19.628906 0.578125 15.625 -0.132812 12.21875 -1.5625 C 8.820312 -3 6.019531 -4.914062 3.8125 -7.3125 C 1.613281 -9.71875 -0.03125 -12.507812 -1.125 -15.6875 C -2.21875 -18.863281 -2.765625 -22.195312 -2.765625 -25.6875 Z M 5.671875 -25.90625 C 5.671875 -23.382812 6 -20.921875 6.65625 -18.515625 C 7.3125 -16.117188 8.378906 -13.984375 9.859375 -12.109375 C 11.335938 -10.242188 13.238281 -8.738281 15.5625 -7.59375 C 17.894531 -6.457031 20.738281 -5.890625 24.09375 -5.890625 C 27.394531 -5.890625 30.195312 -6.472656 32.5 -7.640625 C 34.800781 -8.804688 36.679688 -10.332031 38.140625 -12.21875 C 39.597656 -14.113281 40.664062 -16.273438 41.34375 -18.703125 C 42.019531 -21.128906 42.359375 -23.601562 42.359375 -26.125 C 42.359375 -28.601562 42.03125 -31.039062 41.375 -33.4375 C 40.71875 -35.84375 39.660156 -37.988281 38.203125 -39.875 C 36.753906 -41.769531 34.875 -43.285156 32.5625 -44.421875 C 30.257812 -45.566406 27.484375 -46.140625 24.234375 -46.140625 C 20.890625 -46.140625 18.039062 -45.554688 15.6875 -44.390625 C 13.332031 -43.234375 11.414062 -41.707031 9.9375 -39.8125 C 8.457031 -37.914062 7.375 -35.753906 6.6875 -33.328125 C 6.007812 -30.898438 5.671875 -28.425781 5.671875 -25.90625 Z M 5.671875 -25.90625 "/></g></g></g><g fill="#ed181f" fill-opacity="1"><g transform="translate(227.971316, 255.18504)"><g><path d="M 0.828125 0 L 0.828125 -0.15625 L 19.609375 -26.71875 L 1.875 -52.171875 L 1.875 -52.40625 L 9.359375 -52.40625 L 23.8125 -31.140625 L 38.40625 -52.40625 L 45.8125 -52.40625 L 45.8125 -52.171875 L 28 -26.71875 L 46.78125 -0.15625 L 46.78125 0 L 39.296875 0 L 23.8125 -22.078125 L 8.3125 0 Z M 0.828125 0 "/></g></g></g></svg>